<?xml version="1.0" standalone="no"?>
<!DOCTYPE svg PUBLIC "-//W3C//DTD SVG 20010904//EN"
 "http://www.w3.org/TR/2001/REC-SVG-20010904/DTD/svg10.dtd">
<svg version="1.0" xmlns="http://www.w3.org/2000/svg"
 width="16.000000pt" height="16.000000pt" viewBox="0 0 16.000000 16.000000"
 preserveAspectRatio="xMidYMid meet">
<metadata>
Created by potrace 1.11, written by Peter Selinger 2001-2013
</metadata>
<g transform="translate(0.000000,16.000000) scale(0.006250,-0.006250)"
fill="#000000" stroke="none">
<path d="M1130 2251 c-25 -5 -72 -18 -105 -30 -43 -15 -84 -21 -150 -21 -273
-1 -469 -137 -713 -496 -69 -102 -102 -177 -102 -234 0 -84 35 -138 115 -174
64 -30 121 -39 163 -27 38 11 39 8 10 -55 -30 -69 -58 -181 -58 -236 0 -63 25
-171 56 -238 71 -153 236 -289 449 -369 167 -62 404 -91 602 -72 164 16 257
34 363 73 198 73 374 216 441 358 31 64 59 176 59 237 0 67 -24 174 -55 241
-14 29 -25 54 -25 56 0 2 30 3 68 3 158 0 271 111 242 239 -12 51 -50 125
-115 220 -230 337 -432 473 -700 474 -70 0 -106 6 -165 26 -62 22 -97 27 -205
29 -71 2 -150 0 -175 -4z m249 -116 c29 -4 65 -14 80 -21 14 -8 32 -14 40 -14
8 0 38 -16 67 -35 29 -19 56 -35 61 -35 12 0 111 -96 143 -139 14 -18 31 -39
38 -47 37 -39 91 -200 107 -319 2 -11 6 -43 9 -70 4 -27 9 -51 11 -54 3 -2 0
-10 -6 -18 -9 -10 -7 -13 7 -13 14 0 15 -3 6 -8 -9 -6 -10 -16 -3 -33 5 -14 9
-48 9 -75 1 -28 2 -55 4 -62 2 -6 -6 -18 -17 -27 -17 -14 -17 -16 -2 -11 9 3
17 1 17 -4 0 -5 -8 -14 -17 -19 -11 -6 -13 -11 -5 -11 7 0 10 -5 7 -11 -4 -6
-13 -8 -21 -5 -7 3 -16 1 -19 -4 -3 -4 0 -10 7 -12 6 -2 12 -12 14 -22 2 -13
-1 -15 -10 -6 -15 12 -41 -11 -28 -25 4 -4 -3 -3 -14 3 -12 6 -24 8 -28 5 -3
-3 -6 -1 -6 5 0 7 -7 9 -17 5 -16 -6 -17 -5 -3 12 8 10 10 16 3 12 -7 -4 -16
0 -21 9 -6 11 -23 17 -50 18 -22 1 -43 4 -47 8 -4 4 -14 4 -23 1 -11 -5 -13
-3 -7 6 6 10 -4 12 -44 10 -28 -2 -51 -1 -51 4 0 4 6 7 13 7 8 0 7 4 -3 10
-20 13 -33 13 -25 0 3 -5 1 -10 -4 -10 -6 0 -11 6 -11 13 0 7 -9 13 -19 13
-11 0 -17 -4 -15 -8 3 -5 -9 -6 -28 -2 -56 10 -339 7 -406 -6 -34 -6 -67 -8
-72 -5 -6 3 -10 -1 -10 -9 0 -13 -9 -15 -51 -10 -41 5 -50 4 -44 -7 6 -9 4
-11 -8 -6 -9 3 -19 2 -21 -2 -3 -5 -16 -8 -28 -7 -13 0 -31 -7 -41 -17 -15
-15 -21 -16 -35 -5 -9 7 -13 8 -9 2 11 -18 -20 -37 -48 -30 -25 6 -35 -8 -12
-18 6 -3 -1 -3 -18 1 -16 3 -40 17 -52 31 -26 29 -30 40 -8 22 13 -11 14 -10
8 6 -3 10 -11 22 -17 26 -7 5 -10 53 -9 135 1 110 9 268 13 268 1 0 3 9 5 20
6 41 38 151 51 177 8 15 14 30 14 33 1 25 87 156 129 193 14 13 40 36 56 50
47 43 92 72 99 65 3 -3 6 -1 6 5 0 7 5 12 10 12 6 0 29 9 53 20 95 43 206 55
346 35z m-740 -98 c-8 -7 -20 -19 -25 -29 -5 -9 -30 -40 -56 -70 -26 -29 -62
-70 -80 -91 -18 -21 -39 -44 -45 -52 -7 -7 -13 -18 -13 -24 0 -6 -4 -11 -9
-11 -5 0 -32 -23 -59 -52 -53 -56 -76 -58 -68 -5 3 18 10 33 15 35 6 2 11 9
11 15 0 36 180 247 210 247 8 0 21 7 30 15 19 17 92 45 100 38 3 -3 -2 -10
-11 -16z m1314 4 c25 -11 48 -24 51 -30 4 -6 14 -11 23 -11 9 0 48 -33 88 -73
83 -85 159 -209 150 -244 -6 -26 -25 -31 -25 -7 0 8 -4 13 -9 10 -5 -3 -23 12
-41 34 -18 22 -39 40 -46 40 -8 0 -14 6 -14 14 0 8 -7 16 -15 20 -8 3 -15 11
-15 18 0 7 -16 29 -35 48 -19 19 -35 40 -35 47 0 7 -6 13 -12 13 -7 1 -26 19
-43 41 -16 22 -40 50 -52 61 -21 20 -30 38 -19 38 2 0 24 -9 49 -19z m-455
-1023 c132 -41 208 -123 181 -196 -22 -57 -80 -101 -186 -139 -70 -26 -366
-26 -436 0 -80 29 -122 54 -155 92 -26 29 -32 45 -32 80 0 39 5 50 40 84 47
46 147 89 235 101 99 14 270 3 353 -22z"/>
<path d="M832 1492 c-41 -41 -52 -73 -52 -152 0 -79 11 -111 52 -152 51 -51
100 -53 145 -5 41 42 51 64 59 124 14 111 -51 223 -131 223 -27 0 -44 -9 -73
-38z m96 -58 c3 -18 -1 -21 -22 -17 -29 6 -28 5 -20 28 9 22 38 14 42 -11z"/>
<path d="M1570 1492 c-74 -74 -76 -222 -3 -303 46 -51 91 -53 145 -9 88 73 89
247 0 319 -52 44 -93 42 -142 -7z m98 -55 c3 -12 -3 -17 -22 -17 -25 0 -35 18
-19 34 12 12 38 2 41 -17z"/>
<path d="M965 1140 c3 -5 8 -10 11 -10 2 0 4 5 4 10 0 6 -5 10 -11 10 -5 0 -7
-4 -4 -10z"/>
<path d="M1046 904 c-57 -56 -8 -139 69 -120 71 18 49 136 -25 136 -16 0 -36
-7 -44 -16z"/>
<path d="M1423 912 c-19 -12 -34 -61 -27 -88 18 -71 134 -49 134 26 0 51 -65
89 -107 62z"/>
</g>
</svg>
